<svg width="284" height="47" viewBox="0 0 284 47" fill="none" xmlns="http://www.w3.org/2000/svg">
<path d="M0.302557 46V2.36364H18.3281C21.5952 2.36364 24.4148 3.00284 26.7869 4.28125C29.1733 5.54545 31.0128 7.31392 32.3054 9.58665C33.598 11.8452 34.2443 14.473 34.2443 17.4702C34.2443 20.4815 33.5838 23.1165 32.2628 25.375C30.956 27.6193 29.0881 29.3594 26.6591 30.5952C24.2301 31.831 21.3466 32.4489 18.0085 32.4489H6.88636V24.1392H16.0483C17.6392 24.1392 18.9673 23.8622 20.0327 23.3082C21.1122 22.7543 21.929 21.9801 22.483 20.9858C23.0369 19.9773 23.3139 18.8054 23.3139 17.4702C23.3139 16.1207 23.0369 14.956 22.483 13.9759C21.929 12.9815 21.1122 12.2145 20.0327 11.6747C18.9531 11.1349 17.625 10.8651 16.0483 10.8651H10.8494V46H0.302557ZM54.0756 46.6179C50.6381 46.6179 47.6836 45.9148 45.212 44.5085C42.7546 43.0881 40.8583 41.1136 39.5231 38.5852C38.2021 36.0426 37.5415 33.0952 37.5415 29.7429C37.5415 26.3764 38.2021 23.429 39.5231 20.9006C40.8583 18.358 42.7546 16.3835 45.212 14.9773C47.6836 13.5568 50.6381 12.8466 54.0756 12.8466C57.5131 12.8466 60.4606 13.5568 62.918 14.9773C65.3896 16.3835 67.2859 18.358 68.6069 20.9006C69.9421 23.429 70.6097 26.3764 70.6097 29.7429C70.6097 33.0952 69.9421 36.0426 68.6069 38.5852C67.2859 41.1136 65.3896 43.0881 62.918 44.5085C60.4606 45.9148 57.5131 46.6179 54.0756 46.6179ZM54.1396 38.7557C55.3896 38.7557 56.4478 38.3722 57.3143 37.6051C58.1808 36.8381 58.8413 35.7727 59.2958 34.4091C59.7646 33.0455 59.9989 31.4687 59.9989 29.679C59.9989 27.8608 59.7646 26.2699 59.2958 24.9062C58.8413 23.5426 58.1808 22.4773 57.3143 21.7102C56.4478 20.9432 55.3896 20.5597 54.1396 20.5597C52.8469 20.5597 51.7532 20.9432 50.8583 21.7102C49.9776 22.4773 49.3029 23.5426 48.8342 24.9062C48.3796 26.2699 48.1523 27.8608 48.1523 29.679C48.1523 31.4687 48.3796 33.0455 48.8342 34.4091C49.3029 35.7727 49.9776 36.8381 50.8583 37.6051C51.7532 38.3722 52.8469 38.7557 54.1396 38.7557ZM75.9471 46V13.2727H86.0678V19.2386H86.4087C87.0053 17.0795 87.9783 15.4744 89.3278 14.4233C90.6772 13.358 92.2468 12.8253 94.0366 12.8253C94.5195 12.8253 95.0167 12.8608 95.5281 12.9318C96.0394 12.9886 96.5153 13.081 96.9556 13.2088V22.2642C96.4585 22.0937 95.805 21.9588 94.9954 21.8594C94.1999 21.7599 93.4897 21.7102 92.8647 21.7102C91.6289 21.7102 90.5138 21.9872 89.5195 22.5412C88.5394 23.081 87.7653 23.8409 87.1971 24.821C86.6431 25.7869 86.3661 26.9233 86.3661 28.2301V46H75.9471ZM109.196 46.554C107.108 46.554 105.255 46.206 103.635 45.5099C102.03 44.7997 100.759 43.7344 99.8214 42.3139C98.8981 40.8793 98.4364 39.0824 98.4364 36.9233C98.4364 35.1051 98.756 33.571 99.3952 32.321C100.034 31.071 100.915 30.0554 102.037 29.2741C103.159 28.4929 104.452 27.9034 105.915 27.5057C107.378 27.0937 108.941 26.8168 110.603 26.6747C112.463 26.5043 113.962 26.3267 115.098 26.142C116.235 25.9432 117.059 25.6662 117.57 25.3111C118.096 24.9418 118.358 24.4233 118.358 23.7557V23.6491C118.358 22.5554 117.982 21.7102 117.229 21.1136C116.476 20.517 115.461 20.2188 114.182 20.2188C112.804 20.2188 111.696 20.517 110.858 21.1136C110.02 21.7102 109.488 22.5341 109.26 23.5852L99.6509 23.2443C99.935 21.2557 100.667 19.4801 101.846 17.9176C103.039 16.3409 104.672 15.1051 106.746 14.2102C108.834 13.3011 111.341 12.8466 114.267 12.8466C116.355 12.8466 118.28 13.0952 120.042 13.5923C121.803 14.0753 123.337 14.7855 124.644 15.723C125.951 16.6463 126.959 17.7827 127.669 19.1321C128.394 20.4815 128.756 22.0227 128.756 23.7557V46H118.955V41.4403H118.699C118.117 42.5483 117.371 43.4858 116.462 44.2528C115.567 45.0199 114.509 45.5952 113.287 45.9787C112.08 46.3622 110.716 46.554 109.196 46.554ZM112.414 39.7358C113.536 39.7358 114.544 39.5085 115.439 39.054C116.348 38.5994 117.073 37.9744 117.613 37.179C118.152 36.3693 118.422 35.4318 118.422 34.3665V31.2557C118.124 31.4119 117.762 31.554 117.336 31.6818C116.924 31.8097 116.469 31.9304 115.972 32.044C115.475 32.1577 114.963 32.2571 114.438 32.3423C113.912 32.4276 113.408 32.5057 112.925 32.5767C111.945 32.733 111.107 32.9744 110.411 33.3011C109.729 33.6278 109.203 34.054 108.834 34.5795C108.479 35.0909 108.301 35.7017 108.301 36.4119C108.301 37.4915 108.685 38.3153 109.452 38.8835C110.233 39.4517 111.221 39.7358 112.414 39.7358ZM108.664 9.22443L103.23 9.18182C103.23 6.2983 103.919 4.1179 105.297 2.64062C106.675 1.16335 108.351 0.417614 110.326 0.403409C111.377 0.403409 112.272 0.573863 113.01 0.91477C113.763 1.24148 114.424 1.6321 114.992 2.08665C115.574 2.52699 116.114 2.91761 116.611 3.25852C117.123 3.58523 117.662 3.74858 118.23 3.74858C119.04 3.73437 119.637 3.43608 120.02 2.85369C120.418 2.2571 120.624 1.45454 120.638 0.44602L125.986 0.509943C125.944 3.36506 125.24 5.54545 123.877 7.05114C122.513 8.54261 120.851 9.29545 118.891 9.30966C117.811 9.32386 116.895 9.16051 116.142 8.8196C115.39 8.47869 114.736 8.08807 114.182 7.64773C113.642 7.20739 113.124 6.82386 112.627 6.49716C112.13 6.15625 111.583 5.98579 110.986 5.98579C110.29 5.98579 109.729 6.26989 109.303 6.83807C108.877 7.39205 108.664 8.1875 108.664 9.22443ZM150.404 46.6179C146.966 46.6179 144.012 45.9148 141.54 44.5085C139.083 43.0881 137.186 41.1136 135.851 38.5852C134.53 36.0426 133.87 33.0952 133.87 29.7429C133.87 26.3764 134.53 23.429 135.851 20.9006C137.186 18.358 139.083 16.3835 141.54 14.9773C144.012 13.5568 146.966 12.8466 150.404 12.8466C153.841 12.8466 156.789 13.5568 159.246 14.9773C161.718 16.3835 163.614 18.358 164.935 20.9006C166.27 23.429 166.938 26.3764 166.938 29.7429C166.938 33.0952 166.27 36.0426 164.935 38.5852C163.614 41.1136 161.718 43.0881 159.246 44.5085C156.789 45.9148 153.841 46.6179 150.404 46.6179ZM150.468 38.7557C151.718 38.7557 152.776 38.3722 153.642 37.6051C154.509 36.8381 155.169 35.7727 155.624 34.4091C156.093 33.0455 156.327 31.4687 156.327 29.679C156.327 27.8608 156.093 26.2699 155.624 24.9062C155.169 23.5426 154.509 22.4773 153.642 21.7102C152.776 20.9432 151.718 20.5597 150.468 20.5597C149.175 20.5597 148.081 20.9432 147.186 21.7102C146.306 22.4773 145.631 23.5426 145.162 24.9062C144.708 26.2699 144.48 27.8608 144.48 29.679C144.48 31.4687 144.708 33.0455 145.162 34.4091C145.631 35.7727 146.306 36.8381 147.186 37.6051C148.081 38.3722 149.175 38.7557 150.468 38.7557ZM188.404 46H172.275V2.36364H188.383C192.829 2.36364 196.657 3.23722 199.868 4.98438C203.092 6.71733 205.578 9.21733 207.325 12.4844C209.072 15.7372 209.946 19.6293 209.946 24.1605C209.946 28.706 209.072 32.6122 207.325 35.8793C205.592 39.1463 203.113 41.6534 199.889 43.4006C196.664 45.1335 192.836 46 188.404 46ZM182.822 37.0085H188C190.443 37.0085 192.51 36.5966 194.2 35.7727C195.904 34.9347 197.19 33.5781 198.056 31.7031C198.937 29.8139 199.377 27.2997 199.377 24.1605C199.377 21.0213 198.937 18.5213 198.056 16.6605C197.176 14.7855 195.876 13.4361 194.157 12.6122C192.453 11.7741 190.35 11.3551 187.85 11.3551H182.822V37.0085ZM231.402 46.6179C227.978 46.6179 225.024 45.9432 222.538 44.5938C220.066 43.2301 218.163 41.2912 216.828 38.777C215.507 36.2486 214.846 33.2443 214.846 29.7642C214.846 26.3835 215.514 23.429 216.849 20.9006C218.184 18.358 220.066 16.3835 222.495 14.9773C224.924 13.5568 227.787 12.8466 231.082 12.8466C233.412 12.8466 235.542 13.2088 237.474 13.9332C239.406 14.6577 241.075 15.7301 242.481 17.1506C243.887 18.571 244.981 20.3253 245.762 22.4134C246.544 24.4872 246.934 26.8665 246.934 29.5511V32.1506H218.49V26.0994H237.24C237.225 24.9915 236.963 24.0043 236.451 23.1378C235.94 22.2713 235.237 21.5966 234.342 21.1136C233.461 20.6165 232.446 20.3679 231.295 20.3679C230.13 20.3679 229.086 20.6307 228.163 21.1562C227.24 21.6676 226.508 22.3707 225.968 23.2656C225.429 24.1463 225.145 25.1477 225.116 26.2699V32.4276C225.116 33.7628 225.379 34.9347 225.904 35.9432C226.43 36.9375 227.176 37.7116 228.142 38.2656C229.108 38.8196 230.258 39.0966 231.593 39.0966C232.517 39.0966 233.355 38.9687 234.108 38.7131C234.86 38.4574 235.507 38.081 236.047 37.5838C236.586 37.0866 236.991 36.4759 237.261 35.7514L246.828 36.0284C246.43 38.1733 245.556 40.0412 244.207 41.6321C242.872 43.2088 241.118 44.4375 238.944 45.3182C236.771 46.1847 234.257 46.6179 231.402 46.6179ZM283.124 13.2727L271.895 46H259.963L248.756 13.2727H259.729L265.759 35.8153H266.1L272.151 13.2727H283.124Z" fill="#9D3B03"/>
</svg>
